# xmcd CD database file
#
# Track frame offsets:
#	183
#	13268
#	28883
#	43343
#	56850
#	67745
#	84818
#	101173
#	115360
#	135065
#	150168
#	164350
#	180675
#	192320
#	206763
#	222968
#
# Disc length: 3173 seconds
#
# Revision: 0
# Processed by: cddbd v1.5.1PL0 Copyright (c) Steve Scherf et al.
# Submitted via: CDex 1.51
#
DISCID=db0c6310
DTITLE=Ben Steneker - Country Pride
DYEAR=1994
DGENRE=Country
TTITLE0=Country pride
TTITLE1=I'm stuck on you
TTITLE2=You sure make cheating seem easy
TTITLE3=This ain't the denver i remember
TTITLE4=What i teally need
TTITLE5=How i love you (with Carmen Steneker)
TTITLE6=Lookin'over hills and over mountains
TTITLE7=The hand that rocks the cradle (with Ruud Hermans)
TTITLE8=Miracle song
TTITLE9=Rhinestone cowboy
TTITLE10=One day
TTITLE11=We believe in happy endings (with duo Sound Wave)
TTITLE12=Please, mister Atkins
TTITLE13=Wild rover
TTITLE14=Follow that long shiny railroad
TTITLE15=Till you love me again
EXTD=YEAR: 1994
EXTT0=
EXTT1=
EXTT2=
EXTT3=
EXTT4=
EXTT5=
EXTT6=
EXTT7=
EXTT8=
EXTT9=
EXTT10=
EXTT11=
EXTT12=
EXTT13=
EXTT14=
EXTT15=
PLAYORDER=
